# xmcd
#
# Track frame offsets: 
#        150
#        12648
#        24472
#        35221
#        45729
#        57617
#        68458
#        78326
#        89668
#        100262
#        111526
#        120230
#        131929
#        140911
#        149751
#        160649
#        171022
#        180437
#        190743
#        199020
#        208308
#        219033
#
# Disc length: 3056 seconds
#
# Revision: 0
# Processed by: cddbd v1.5.2PL0 Copyright (c) Steve Scherf et al.
# Submitted via: ExactAudioCopy v0.99pb3
#
DISCID=4c0bee16
DTITLE=Lewis Family - Born of the Spirit Disk 1
DYEAR=2003
DGENRE=Gospel
TTITLE0=Carry On
TTITLE1=Over in Gloryland
TTITLE2=He Knew Just What To Do
TTITLE3=Got To Cross Jordan
TTITLE4=Just One Rose Will Do
TTITLE5=You've Got A Chance
TTITLE6=Did You Do What The Lord Said Do
TTITLE7=Wait A Little Longer
TTITLE8=Lights In The Valley
TTITLE9=He's The Only One
TTITLE10=You Can't Do No Wrong
TTITLE11=Where There's A Will
TTITLE12=A Voice From Heaven
TTITLE13=The Old Gospel Ship
TTITLE14=Born of The Spirit
TTITLE15=I'm Not Alone
TTITLE16=I Do Believe
TTITLE17=I Shall Not Be Moved
TTITLE18=To Get My Reward
TTITLE19=Sunshine Land
TTITLE20=At The End Of My Journey
TTITLE21=Over Yonder By The Sea
EXTD=
EXTT0=
EXTT1=
EXTT2=
EXTT3=
EXTT4=
EXTT5=
EXTT6=
EXTT7=
EXTT8=
EXTT9=
EXTT10=
EXTT11=
EXTT12=
EXTT13=
EXTT14=
EXTT15=
EXTT16=
EXTT17=
EXTT18=
EXTT19=
EXTT20=
EXTT21=
PLAYORDER=
